Coordinates
version=1
nRows=10
nColumns=22
inDegrees=yes

Units are S.I. units (second, meters, Newtons, ...)
If the header above contains a line with 'inDegrees', this indicates whether rotational values are in degrees (yes) or radians (no).

endheader
time	pelvis_tilt	pelvis_list	pelvis_rotation	pelvis_tx	pelvis_ty	pelvis_tz	hip_flexion_r	hip_adduction_r	hip_rotation_r	knee_angle_r	ankle_angle_r	subtalar_angle_r	hip_flexion_l	hip_adduction_l	hip_rotation_l	knee_angle_l	ankle_angle_l	subtalar_angle_l	lumbar_extension	lumbar_bending	lumbar_rotation
      1.18000000	      0.06567400	      1.91858924	     -7.45221702	     -0.93355675	      0.89993587	     -0.48333652	     21.33494432	     -3.55649264	      5.33095712	    -48.23818409	     14.42629891	     -3.47580593	     -0.99184292	      3.38019304	    -13.87548339	    -14.37236308	     18.88945271	     -1.64013839	    -11.92305611	     -4.69148534	      2.53863051
      1.19000000	      0.03413598	      1.74666609	     -7.17875200	     -0.93149987	      0.89998769	     -0.48394610	     22.13778193	     -3.26936311	      5.30671707	    -49.02445549	     14.42069379	     -3.71928980	     -1.11043944	      3.22432704	    -13.59644371	    -14.37449651	     18.99517298	     -1.63286721	    -12.06596724	     -4.43305340	      2.17703962
      1.20000000	     -0.01050226	      1.58772835	     -6.88532421	     -0.92925618	      0.90000267	     -0.48453721	     22.89120446	     -3.04683348	      5.18023802	    -49.57888962	     14.55179582	     -4.18313901	     -1.20782790	      3.06847752	    -13.36864101	    -14.40900413	     19.05761360	     -1.67860835	    -12.17425978	     -4.17949774	      1.78223451
      1.21000000	     -0.02671699	      1.42100534	     -6.58994881	     -0.92685578	      0.90006516	     -0.48510299	     23.54894339	     -2.85963502	      4.99613925	    -49.89994264	     14.68132718	     -4.61241449	     -1.36913586	      2.91993763	    -13.04448114	    -14.39968417	     19.14441340	     -1.72554028	    -12.31020306	     -3.91603288	      1.42148632
      1.22000000	     -0.05302446	      1.26292250	     -6.32429313	     -0.92432266	      0.90008115	     -0.48559425	     24.16982993	     -2.70190657	      4.80307469	    -50.01198658	     14.88476908	     -5.38567181	     -1.53119671	      2.78083527	    -12.73536205	    -14.38571340	     19.21871913	     -1.84083914	    -12.42449403	     -3.65917179	      1.11501456
      1.23000000	     -0.06895193	      1.10532255	     -6.01390366	     -0.92163052	      0.90008692	     -0.48611714	     24.71943080	     -2.62453911	      4.47460379	    -49.92212356	     15.03830104	     -5.81807192	     -1.69611995	      2.63564809	    -12.40119065	    -14.40026290	     19.31171288	     -1.88675389	    -12.54737561	     -3.39232722	      0.74229076
      1.24000000	     -0.08075893	      0.94550914	     -5.76299357	     -0.91879605	      0.90006690	     -0.48647893	     25.21026674	     -2.53556130	      4.19697842	    -49.62963947	     15.27601174	     -6.76553531	     -1.89727644	      2.49124791	    -12.09184971	    -14.37839671	     19.40058752	     -2.00857446	    -12.66413601	     -3.13656453	      0.48057072
      1.25000000	     -0.07837391	      0.78417039	     -5.50053249	     -0.91581463	      0.90003369	     -0.48680163	     25.62686666	     -2.48607784	      3.86088952	    -49.15121856	     15.47852372	     -7.49565509	     -2.11277705	      2.33868635	    -11.79768434	    -14.37272752	     19.50906078	     -2.06314943	    -12.79581317	     -2.87613506	      0.19640008
      1.26000000	     -0.06132539	      0.61667686	     -5.25285232	     -0.91268530	      0.89997870	     -0.48702348	     25.97228746	     -2.45024635	      3.49537279	    -48.49675199	     15.67179865	     -8.17730675	     -2.35582450	      2.17486056	    -11.52385965	    -14.36610380	     19.63758199	     -2.09411041	    -12.94019164	     -2.61512921	     -0.06184288
      1.27000000	     -0.02960935	      0.44478472	     -5.02327362	     -0.90942458	      0.89990458	     -0.48713913	     26.24107073	     -2.40666602	      3.14969953	    -47.66731571	     15.88626863	     -8.85575379	     -2.62300820	      2.00073263	    -11.28277801	    -14.36152411	     19.77457176	     -2.10368267	    -13.10083493	     -2.35101979	     -0.30320531
